<svg xmlns="http://www.w3.org/2000/svg" width="24" height="24"><path fill="#fff" d="M21 9c-.825 0-1.5.675-1.5 1.5v6c0 .825.675 1.5 1.5 1.5s1.5-.675 1.5-1.5v-6c0-.825-.675-1.5-1.5-1.5zM3 9c-.825 0-1.5.675-1.5 1.5v6c0 .825.675 1.5 1.5 1.5s1.5-.675 1.5-1.5v-6C4.5 9.675 3.825 9 3 9zm2.25 8.25A2.25 2.25 0 007.5 19.5v3c0 .825.675 1.5 1.5 1.5s1.5-.675 1.5-1.5v-3h3v3c0 .825.675 1.5 1.5 1.5s1.5-.675 1.5-1.5v-3a2.25 2.25 0 002.25-2.25V9H5.25v8.25zM18.708 7.5a6.748 6.748 0 00-3.038-4.914l.751-1.501A.75.75 0 0015.08.414l-.753 1.507-.196-.078c-.67-.223-1.386-.344-2.13-.344s-1.461.121-2.13.344l-.196.078L8.922.414a.75.75 0 10-1.341.671l.751 1.501A6.748 6.748 0 005.294 7.5v.75h13.458V7.5h-.042zM9.75 6a.75.75 0 01-.002-1.5h.003A.75.75 0 019.749 6zm4.5 0a.75.75 0 01-.002-1.5h.003a.75.75 0 01-.002 1.5z"/></svg>