<svg xmlns="http://www.w3.org/2000/svg" width="24" height="24"><path fill="#fff" d="M18.551 12.752c-.03-3.039 2.479-4.497 2.591-4.57-1.41-2.063-3.606-2.346-4.388-2.378-1.869-.189-3.647 1.1-4.595 1.1-.946 0-2.41-1.072-3.96-1.044-2.037.03-3.915 1.184-4.964 3.009-2.117 3.673-.542 9.113 1.521 12.092 1.008 1.458 2.21 3.096 3.788 3.037 1.52-.061 2.094-.983 3.932-.983s2.354.983 3.962.953c1.635-.03 2.671-1.486 3.672-2.948 1.158-1.691 1.634-3.329 1.662-3.413-.036-.017-3.189-1.224-3.221-4.855zm-3.022-8.919c.838-1.016 1.403-2.426 1.249-3.833-1.207.049-2.669.804-3.535 1.818-.777.899-1.457 2.335-1.274 3.713 1.347.105 2.722-.684 3.56-1.698z"/></svg>