<svg xmlns="http://www.w3.org/2000/svg" width="17" height="17"><path fill="#fff" d="M8.5 0a8.5 8.5 0 10.001 17.001A8.5 8.5 0 008.5 0zm0 15.938a7.413 7.413 0 01-2.942-.605l3.871-4.354a.533.533 0 00.134-.353V9.032a.531.531 0 00-.531-.531c-1.876 0-3.855-1.95-3.874-1.969a.531.531 0 00-.376-.156H2.657a.531.531 0 00-.531.531v3.188c0 .201.114.385.294.475l1.831.916v3.119a7.429 7.429 0 01-3.188-6.104c0-1.141.257-2.221.716-3.188h1.94a.531.531 0 00.376-.156L6.22 3.032c.1-.1.156-.235.156-.376V1.371a7.453 7.453 0 015.384.441 3.166 3.166 0 00-1.134 2.437c0 .852.332 1.652.934 2.254a3.18 3.18 0 002.41.93c.229.86.643 3.099-.14 6.181a.525.525 0 00-.014.087 7.415 7.415 0 01-5.315 2.236z"/></svg>